<?xml version="1.0" encoding="UTF-8" standalone="no"?>
<svg width="206px" height="50px" viewBox="0 0 206 50" version="1.1" xmlns="http://www.w3.org/2000/svg" xmlns:xlink="http://www.w3.org/1999/xlink" xmlns:sketch="http://www.bohemiancoding.com/sketch/ns">
    <!-- Generator: Sketch 3.3.3 (12072) - http://www.bohemiancoding.com/sketch -->
    <title>logo</title>
    <desc>Created with Sketch.</desc>
    <defs></defs>
    <g id="+Page1-INDEX" stroke="none" stroke-width="1" fill="none" fill-rule="evenodd" sketch:type="MSPage">
        <g id="INDEX-Menu-Open" sketch:type="MSArtboardGroup" transform="translate(-31.000000, -27.000000)" fill="#7F56C5">
            <g id="header" sketch:type="MSLayerGroup" transform="translate(24.000000, 10.000000)">
                <g id="logo" transform="translate(7.000000, 17.000000)" sketch:type="MSShapeGroup">
                    <path d="M32.9546889,8.40189873 C32.9546889,8.40189873 32.9527957,8.40696203 32.9502714,8.40696203 C32.9363877,8.43670886 32.9256595,8.4556962 32.9256595,8.4556962 L32.9546889,8.40189873" id="Fill-1"></path>
                    <path d="M57.4845387,26.4139241 C59.7589297,26.5335443 59.2786823,24.9759494 57.8455131,24.2582278 C53.5081409,22.0829114 49.2319828,20.4202532 47.8158526,19.9183544 C45.9175817,19.2474684 45.3515083,20.464557 45.3515083,20.464557 C45.3515083,20.464557 39.8258236,27.6613924 39.2698473,28.6575949 C38.1137196,30.7329114 40.3824309,30.3727848 40.3824309,30.3727848 L45.886028,27.3753165 C47.0402625,28.7088608 49.2023224,33.5810127 46.1883125,37.2556962 C45.0776221,38.6158228 42.5975009,41.6512658 36.5354033,43.3177215 C30.1666036,45.0696203 25.5881611,43.8860759 23.2860028,42.4841772 C22.2554588,41.8613924 24.3998485,36.7291139 18.2601287,37.5677215 C13.0020194,38.285443 14.062855,35.7664557 13.8495519,35.1481013 C13.7422693,34.8481013 13.8571248,34.164557 13.3535277,33.9373418 C12.8272119,33.6968354 12.5078884,33.3075949 12.5078884,33.3075949 C11.8787076,32.1886076 13.6652783,31.7259494 13.6652783,31.7259494 C10.6272876,32.1677215 12.1481762,30.5367089 12.3646346,29.9955696 C12.5003155,29.6518987 12.7420169,29.5924051 11.260886,29.1860759 C9.50145147,28.6949367 9.72674492,28.156962 10.8102991,26.9867089 C11.9203585,25.7829114 12.1330304,24.4632911 12.1854096,24.3936709 C12.3955572,24.0037975 11.1655938,16.1993671 18.6211031,13.7436709 C22.1305061,12.5886076 26.4035088,12.5075949 31.7846775,13.1936709 C39.7128613,14.2088608 39.3398965,9.7835443 39.3398965,9.7835443 C29.761454,8.05189873 25.6197148,7.9664557 21.2615171,8.31139241 C12.6429383,9.00886076 6.67865707,11.8101266 3.24308974,16.1791139 C-0.187429004,20.5468354 -0.867726871,27.7246835 2.59182128,33.528481 C2.68585132,33.6791139 6.06651521,39.356962 9.67310362,42.3563291 C13.73091,45.7436709 18.041146,47.2322785 19.5475199,47.7924051 C28.5472674,50.9594937 38.9252808,50.5848101 46.8711347,46.478481 C60.596365,38.3493671 52.6498801,27.9753165 51.7436577,25.9348101 C51.7436577,25.9348101 54.2427111,26.243038 57.4845387,26.4139241" id="Fill-2"></path>
                    <path d="M43.6299382,5.01962025 L35.894232,5.48227848 L43.9530481,6.43037975 L47.6120157,17.8259494 L46.2053515,6.49936709 L53.9385334,6.03987342 L45.8803484,5.08607595 L43.6141613,0.1 L43.6299382,5.01962025" id="Fill-3"></path>
                    <path d="M73.6637973,42.2039635 L72.1943294,42.2039635 L72.1943294,41.9537087 L76.6490345,41.9537087 L76.6490345,42.2039635 L75.3875179,42.2039635 L75.3875179,44.0681227 C74.8448952,44.4913243 73.5037723,45.7441922 71.0928378,45.7441922 C68.2351332,45.7441922 66.0483961,43.6768007 66.0483961,39.980362 C66.0483961,36.76929 68.3951581,34.2157347 71.0928378,34.2157347 C72.8490509,34.2157347 73.6313049,35.2813101 74.1584937,35.2813101 C74.6377563,35.2813101 74.7173626,34.8899881 74.7173626,34.4978691 L74.9724278,34.4978691 L74.9724278,37.8500082 L74.7173626,37.8500082 C74.6531902,36.1739387 73.0886822,34.4667865 71.0928378,34.4667865 C68.2513794,34.4667865 67.8687816,37.9281132 67.8687816,39.980362 C67.8687816,42.0007311 68.2513794,45.4939374 71.0928378,45.4939374 C72.6256658,45.4939374 73.6637973,45.0077737 73.6637973,43.5827559 L73.6637973,42.2039635" id="Fill-4"></path>
                    <path d="M83.0857746,41.9226261 L79.6692011,41.9226261 L79.0144796,43.8959729 C78.9023809,44.2091899 78.7748483,44.5853691 78.7748483,44.8515637 C78.7748483,45.0707359 78.9665534,45.2428856 79.477496,45.2428856 L80.3076763,45.2428856 L80.3076763,45.4939374 L77.0186353,45.4939374 L77.0186353,45.2428856 L77.5295779,45.2428856 C78.0242744,45.2428856 78.2322256,45.1958633 78.5352171,44.3191745 L81.9680368,34.2157347 L82.1434957,34.2157347 L86.0230856,45.2428856 L87.3479623,45.2428856 L87.3479623,45.4939374 L82.6698722,45.4939374 L82.6698722,45.2428856 L84.2351925,45.2428856 L83.0857746,41.9226261 L83.0857746,41.9226261 Z M81.3612416,36.9255 L81.3287493,36.9255 L79.7650536,41.6715743 L83.005356,41.6715743 L81.3612416,36.9255 L81.3612416,36.9255 Z" id="Fill-5"></path>
                    <path d="M89.5054562,34.7170413 L87.9092682,34.7170413 L87.9092682,34.4667865 L92.8099311,34.4667865 C94.6465628,34.4667865 96.6415948,34.8740483 96.6415948,37.238717 C96.6415948,39.1498986 94.3906853,39.6512052 93.2250212,39.7922724 L93.2250212,39.823355 C95.0608406,39.980362 96.0347996,40.371684 96.2744309,42.4390755 L96.497816,44.3502571 C96.6099147,45.2747652 97.0566849,45.3369304 97.3279963,45.3369304 C97.6155538,45.3369304 97.8226927,45.2428856 97.9827177,45.1807204 L98.0785702,45.3839528 C97.7593326,45.4939374 97.3596764,45.5871852 96.7691274,45.5871852 C94.8220216,45.5871852 94.7099229,44.5694293 94.4865378,42.7682323 L94.3744391,41.8285813 C94.2631527,40.8419079 93.9755952,39.9484824 92.1714559,39.9484824 L91.1341367,39.9484824 L91.1341367,45.2428856 L92.7620048,45.2428856 L92.7620048,45.4939374 L87.9092682,45.4939374 L87.9092682,45.2428856 L89.5054562,45.2428856 L89.5054562,34.7170413 L89.5054562,34.7170413 Z M91.1341367,39.6982276 L91.9318246,39.6982276 C93.8163825,39.6982276 94.9170618,39.0558538 94.9170618,37.238717 C94.9170618,35.9858491 94.4865378,34.7170413 92.2193821,34.7170413 L91.1341367,34.7170413 L91.1341367,39.6982276 L91.1341367,39.6982276 Z" id="Fill-6"></path>
                    <path d="M99.8372202,34.7170413 L98.3198261,34.7170413 L98.3198261,34.4667865 L103.317154,34.4667865 C107.563908,34.4667865 108.761252,37.8970306 108.761252,39.980362 C108.761252,43.3946663 106.606195,45.4939374 103.3334,45.4939374 L98.3198261,45.4939374 L98.3198261,45.2428856 L99.8372202,45.2428856 L99.8372202,34.7170413 L99.8372202,34.7170413 Z M101.465901,45.2428856 L102.837891,45.2428856 C104.275679,45.2428856 106.941679,44.7104965 106.941679,39.980362 C106.941679,37.3016792 106.158612,34.7170413 102.247342,34.7170413 L101.465901,34.7170413 L101.465901,45.2428856 L101.465901,45.2428856 Z" id="Fill-7"></path>
                    <path d="M111.366328,34.7170413 L109.961033,34.7170413 L109.961033,34.4667865 L118.469974,34.4667865 L118.662492,37.1295294 L118.406614,37.1295294 C118.406614,35.3283325 117.193024,34.7170413 115.500983,34.7170413 L112.994196,34.7170413 L112.994196,39.7611898 L114.192353,39.7611898 C115.851901,39.7611898 116.011926,38.7745164 116.011926,37.7559634 L116.266991,37.7559634 L116.266991,41.9226261 L116.011926,41.9226261 C116.011926,40.7319234 115.851901,40.0114446 114.175294,40.0114446 L112.994196,40.0114446 L112.994196,45.2428856 L115.181746,45.2428856 C117.768139,45.2428856 119.013409,44.9456085 119.013409,42.2828655 L119.268475,42.2828655 L119.268475,45.4939374 L109.961033,45.4939374 L109.961033,45.2428856 L111.366328,45.2428856 L111.366328,34.7170413" id="Fill-8"></path>
                    <path d="M122.320321,35.2183479 L122.287829,35.2183479 L122.287829,44.3502571 C122.287829,45.1026154 122.543706,45.2428856 123.278034,45.2428856 L123.916509,45.2428856 L123.916509,45.4939374 L120.499936,45.4939374 L120.499936,45.2428856 L121.043371,45.2428856 C121.776886,45.2428856 122.032764,45.1026154 122.032764,44.3502571 L122.032764,34.7170413 L120.499936,34.7170413 L120.499936,34.4667865 L123.853149,34.4667865 L129.887796,42.6431049 L129.919476,42.6431049 L129.919476,35.5626475 C129.919476,34.9210707 129.791944,34.7170413 129.089296,34.7170413 L128.338722,34.7170413 L128.338722,34.4667865 L131.707369,34.4667865 L131.707369,34.7170413 L131.004722,34.7170413 C130.302886,34.7170413 130.174541,34.9210707 130.174541,35.5626475 L130.174541,45.5871852 L129.967402,45.5871852 L122.320321,35.2183479" id="Fill-9"></path>
                    <path d="M142.071626,34.2157347 C144.770118,34.2157347 147.11688,36.76929 147.11688,39.980362 C147.11688,43.1914339 144.770118,45.7441922 142.071626,45.7441922 C139.373946,45.7441922 137.027184,43.1914339 137.027184,39.980362 C137.027184,36.76929 139.373946,34.2157347 142.071626,34.2157347 L142.071626,34.2157347 Z M142.071626,45.4939374 C144.913896,45.4939374 145.297307,42.0318137 145.297307,39.980362 C145.297307,37.9281132 144.913896,34.4667865 142.071626,34.4667865 C139.230167,34.4667865 138.847569,37.9281132 138.847569,39.980362 C138.847569,42.0318137 139.230167,45.4939374 142.071626,45.4939374 L142.071626,45.4939374 Z" id="Fill-10"></path>
                    <path d="M149.689464,34.7170413 L148.237054,34.7170413 L148.237054,34.4667865 L156.777676,34.4667865 L157.001873,37.1295294 L156.72975,37.1295294 C156.66639,35.2964529 155.612824,34.7170413 153.856611,34.7170413 L151.318144,34.7170413 L151.318144,39.7611898 L152.515488,39.7611898 C154.175849,39.7611898 154.335062,38.7745164 154.335062,37.7559634 L154.590939,37.7559634 L154.590939,41.9226261 L154.335062,41.9226261 C154.335062,40.7319234 154.175849,40.0114446 152.499242,40.0114446 L151.318144,40.0114446 L151.318144,45.2428856 L152.81848,45.2428856 L152.81848,45.4939374 L148.237054,45.4939374 L148.237054,45.2428856 L149.689464,45.2428856 L149.689464,34.7170413" id="Fill-11"></path>
                    <path d="M163.709113,34.7170413 L162.30463,34.7170413 L162.30463,34.4667865 L166.838941,34.4667865 L166.838941,34.7170413 L165.337793,34.7170413 L165.337793,39.6982276 L171.149055,39.6982276 L171.149055,34.7170413 L169.648719,34.7170413 L169.648719,34.4667865 L174.182218,34.4667865 L174.182218,34.7170413 L172.777735,34.7170413 L172.777735,45.2428856 L174.182218,45.2428856 L174.182218,45.4939374 L169.648719,45.4939374 L169.648719,45.2428856 L171.149055,45.2428856 L171.149055,39.9484824 L165.337793,39.9484824 L165.337793,45.2428856 L166.838941,45.2428856 L166.838941,45.4939374 L162.30463,45.4939374 L162.30463,45.2428856 L163.709113,45.2428856 L163.709113,34.7170413" id="Fill-12"></path>
                    <path d="M180.220115,34.2157347 C182.917794,34.2157347 185.264556,36.76929 185.264556,39.980362 C185.264556,43.1914339 182.917794,45.7441922 180.220115,45.7441922 C177.521623,45.7441922 175.174861,43.1914339 175.174861,39.980362 C175.174861,36.76929 177.521623,34.2157347 180.220115,34.2157347 L180.220115,34.2157347 Z M180.220115,45.4939374 C183.061573,45.4939374 183.444983,42.0318137 183.444983,39.980362 C183.444983,37.9281132 183.061573,34.4667865 180.220115,34.4667865 C177.378656,34.4667865 176.995246,37.9281132 176.995246,39.980362 C176.995246,42.0318137 177.378656,45.4939374 180.220115,45.4939374 L180.220115,45.4939374 Z" id="Fill-13"></path>
                    <path d="M187.837953,34.7170413 L186.257198,34.7170413 L186.257198,34.4667865 L190.806944,34.4667865 C193.186198,34.4667865 195.021205,35.2653703 195.021205,37.5208514 C195.021205,39.7293102 192.898641,40.5749164 190.966969,40.5749164 C190.423534,40.5749164 189.785058,40.4657288 189.466633,40.3087218 L189.466633,45.2428856 L191.094501,45.2428856 L191.094501,45.4939374 L186.257198,45.4939374 L186.257198,45.2428856 L187.837953,45.2428856 L187.837953,34.7170413 L187.837953,34.7170413 Z M189.466633,39.9955048 C189.705452,40.1525118 190.168468,40.3246616 190.695657,40.3246616 C191.749223,40.3246616 193.297485,39.7763326 193.297485,37.6619186 C193.297485,35.6096699 192.339772,34.7170413 190.43978,34.7170413 L189.466633,34.7170413 L189.466633,39.9955048 L189.466633,39.9955048 Z" id="Fill-14"></path>
                    <path d="M197.419143,34.7170413 L196.013847,34.7170413 L196.013847,34.4667865 L204.523601,34.4667865 L204.714494,37.1295294 L204.459429,37.1295294 C204.459429,35.3283325 203.245838,34.7170413 201.553798,34.7170413 L199.047011,34.7170413 L199.047011,39.7611898 L200.244355,39.7611898 C201.904715,39.7611898 202.06474,38.7745164 202.06474,37.7559634 L202.319806,37.7559634 L202.319806,41.9226261 L202.06474,41.9226261 C202.06474,40.7319234 201.904715,40.0114446 200.228921,40.0114446 L199.047011,40.0114446 L199.047011,45.2428856 L201.23456,45.2428856 C203.820141,45.2428856 205.066224,44.9456085 205.066224,42.2828655 L205.321289,42.2828655 L205.321289,45.4939374 L196.013847,45.4939374 L196.013847,45.2428856 L197.419143,45.2428856 L197.419143,34.7170413" id="Fill-15"></path>
                    <path d="M72.8791974,18.2461478 C72.767779,17.9271558 72.5992231,17.5699611 72.3935277,17.1764739 L70.0727884,17.2700704 L70.0727884,25.4349296 L69.2300087,25.4349296 L69.2300087,17.307318 C68.0882088,17.3636668 67.0397336,17.4009144 66.2169521,17.4200157 C66.1979062,17.5699611 66.0855356,17.62631 65.9731649,17.6635576 L65.6741448,16.5566361 L67.0397336,16.5375348 C67.508262,16.0122485 67.9758382,15.3924106 68.4634124,14.717179 C67.8825134,13.8910469 66.8349905,12.7650241 65.898886,11.938892 L66.385508,11.3763581 C66.5912034,11.5454048 66.7968988,11.7325977 67.0025942,11.9207457 C67.6949116,10.8128692 68.5376913,9.19880762 69.0052674,8.07278481 L70.0537426,8.54172222 C69.9785114,8.65442 69.8480472,8.69166758 69.6975848,8.67352132 C69.1928692,9.78044282 68.2939042,11.3572568 67.5644474,12.446032 C68.1072547,12.9904196 68.6129225,13.5529535 68.968128,14.022846 C69.8661408,12.7277765 70.7270141,11.3200092 71.3260067,10.1939864 L72.3744818,10.7001714 C72.3182965,10.7756216 72.18688,10.8501167 72.0002305,10.8501167 C71.0079407,12.5023809 69.3795188,14.8671243 67.9758382,16.5193885 C69.2119151,16.5193885 70.5965499,16.4821409 72.0002305,16.4630396 C71.5878874,15.7687066 71.1022177,15.0543173 70.6336893,14.4545358 L71.3631461,14.1164425 C72.2802048,15.2806679 73.254401,16.8383805 73.6467459,17.8517056 L72.8791974,18.2461478 L72.8791974,18.2461478 Z M68.1443941,19.0904262 C68.1072547,19.2222253 67.994884,19.2785742 67.7891886,19.2785742 C67.508262,20.8926357 67.0397336,22.6938902 66.4607392,23.7836205 C66.2731374,23.6699676 65.9550714,23.5200223 65.7484237,23.4264258 C66.3293227,22.3567519 66.7597594,20.5363961 67.0397336,18.8086817 L68.1443941,19.0904262 L68.1443941,19.0904262 Z M71.9069057,18.7523328 C72.4868525,19.9356596 73.0287075,21.4561247 73.2353552,22.4694497 L72.4306671,22.7320928 C72.2621112,21.7187678 71.7383498,20.1601001 71.158403,18.9777284 L71.9069057,18.7523328 L71.9069057,18.7523328 Z M81.3022334,17.11917 C81.2450958,19.7093089 81.1708169,22.1877052 81.0774921,24.008061 L83.247769,24.008061 L83.247769,24.8714407 L72.1687864,24.8714407 L72.1687864,24.008061 L74.8256853,24.008061 C75.0885183,22.1686039 75.350399,19.6911627 75.5932339,17.11917 L73.572467,17.11917 L73.572467,16.2557903 L75.6865586,16.2557903 C75.8741604,14.0973411 76.0617623,11.9207457 76.1731806,10.0621873 L73.4972359,10.0621873 L73.4972359,9.1797063 L81.3955581,9.1797063 C81.3955581,11.2818066 81.3765123,13.7783491 81.320327,16.2557903 L83.1544442,16.2557903 L83.1544442,17.11917 L81.3022334,17.11917 L81.3022334,17.11917 Z M80.1785271,24.008061 C80.2718518,22.1686039 80.3661289,19.6911627 80.4223142,17.11917 L76.5102925,17.11917 C76.2674577,19.7093089 76.0236705,22.1877052 75.7998815,24.008061 L80.1785271,24.008061 L80.1785271,24.008061 Z M80.4413601,16.2557903 C80.4965931,14.1164425 80.5156389,11.9579933 80.5156389,10.0621873 L77.0911915,10.0621873 C76.959775,11.938892 76.7721732,14.1164425 76.5855237,16.2557903 L80.4413601,16.2557903 L80.4413601,16.2557903 Z" id="Fill-23"></path>
                    <path d="M92.611671,19.1085724 C92.5745315,19.2222253 92.4621609,19.2967204 92.2564655,19.2785742 C91.9193536,20.8926357 91.3584527,22.6938902 90.7032748,23.8017667 C90.5347189,23.689069 90.197607,23.5200223 89.973818,23.4264258 C90.6280436,22.3567519 91.1527573,20.5736437 91.4889169,18.827783 L92.611671,19.1085724 L92.611671,19.1085724 Z M94.6333901,8.54172222 C94.5581589,8.63531868 94.4276947,8.7107689 94.2591387,8.69166758 C93.679192,9.78044282 92.6869022,11.3572568 91.90126,12.4269307 C92.5002526,12.9713183 93.0611535,13.5529535 93.4354048,14.022846 C94.4086488,12.7277765 95.3447533,11.3200092 95.9999312,10.1939864 L97.0293605,10.6810701 C96.9922211,10.7937678 96.8608046,10.8319705 96.6732027,10.8319705 C95.5685423,12.5214822 93.8658415,14.8671243 92.3688361,16.5193885 C93.6982379,16.5002872 95.1761974,16.4821409 96.6732027,16.4439383 C96.2437184,15.7687066 95.7561441,15.0925199 95.288568,14.5108847 C95.77519,14.2482416 95.8875606,14.1918927 95.9808854,14.15369 C96.9731752,15.2988142 98.0026045,16.8756281 98.4139953,17.8889531 C97.9092797,18.2079452 97.7959568,18.2642941 97.6845384,18.320643 C97.5340761,17.9835047 97.3474265,17.5890624 97.1036394,17.1573726 L94.6705295,17.2700704 L94.6705295,25.4349296 L93.8096562,25.4349296 L93.8096562,17.307318 C92.5554857,17.3636668 91.4327316,17.4009144 90.5347189,17.4200157 C90.515673,17.5699611 90.4042546,17.6454113 90.291884,17.6635576 L89.9919116,16.5566361 L91.3765463,16.5375348 C91.8631683,16.0122485 92.4059756,15.3742644 92.9306893,14.6980776 C92.3126508,13.8729006 91.2079904,12.7841254 90.2347464,12.0143422 L90.7032748,11.4508532 C90.9089702,11.6007986 91.1146656,11.7698453 91.3394069,11.9579933 C92.125049,10.8501167 93.0430599,9.2360552 93.5668214,8.07278481 L94.6333901,8.54172222 L94.6333901,8.54172222 Z M97.21601,22.7693404 C96.9922211,21.7560154 96.3932285,20.1983027 95.77519,19.014976 L96.5236927,18.7523328 C97.1598247,19.9356596 97.7778632,21.4742709 98.020698,22.488551 L97.21601,22.7693404 L97.21601,22.7693404 Z M106.574198,11.6953501 L107.06082,11.7698453 C107.06082,11.8452955 107.041774,11.9579933 107.041774,12.0515898 C106.704662,20.9862322 106.386596,23.9144645 105.62,24.8150918 C105.188611,25.3594794 104.758175,25.4540309 103.617327,25.4540309 C102.962149,25.4540309 102.119369,25.4158283 101.277542,25.3594794 C101.258496,25.07869 101.165171,24.7214953 100.978522,24.4779535 C102.306971,24.5715499 103.524002,24.5906513 103.972532,24.5906513 C104.36583,24.5906513 104.608664,24.5524486 104.81436,24.327053 C105.469538,23.6327201 105.825696,20.6672401 106.143762,12.5959774 L99.8557676,12.5959774 C99.3310539,13.8165517 98.7320613,14.9234732 98.0959292,15.7868529 C97.9273733,15.6369075 97.5721678,15.4115119 97.3474265,15.2988142 C98.6196907,13.6284037 99.7424447,10.8319705 100.435714,8.07278481 L101.6337,8.39177685 C101.577514,8.52357596 101.464191,8.57896979 101.240402,8.56082354 C100.959476,9.61139613 100.60427,10.7001714 100.210021,11.7134964 L106.368503,11.7134964 L106.574198,11.6953501 L106.574198,11.6953501 Z M100.191927,15.7687066 C101.314681,17.1382713 102.512666,19.014976 102.981195,20.2355503 L102.175555,20.6672401 C101.707978,19.4657671 100.547133,17.5518148 99.4243787,16.1440476 L100.191927,15.7687066 L100.191927,15.7687066 Z" id="Fill-24"></path>
                    <path d="M124.696344,9.68684635 L116.330445,9.68684635 L116.330445,15.5805586 C116.330445,18.3024967 116.180935,22.1877052 115.076275,24.8532944 C114.926765,24.702394 114.589653,24.4779535 114.383957,24.3834019 C115.432432,21.8123643 115.525757,18.2079452 115.525757,15.5805586 L115.525757,8.87981558 L124.696344,8.87981558 L124.696344,9.68684635 L124.696344,9.68684635 Z M118.67023,13.3094117 L118.67023,12.0888373 L116.798021,12.0888373 L116.798021,11.3763581 L118.67023,11.3763581 L118.67023,10.0621873 L119.736799,10.1366824 C119.717753,10.2493802 119.643474,10.3248304 119.436827,10.3439318 L119.436827,11.3763581 L121.683287,11.3763581 L121.683287,10.0621873 L122.749856,10.1366824 C122.73081,10.2493802 122.656531,10.3248304 122.450835,10.3439318 L122.450835,11.3763581 L124.415417,11.3763581 L124.415417,12.0888373 L122.450835,12.0888373 L122.450835,13.3094117 L121.683287,13.3094117 L121.683287,12.0888373 L119.436827,12.0888373 L119.436827,13.3094117 L118.67023,13.3094117 L118.67023,13.3094117 Z M124.341138,19.4848684 L124.341138,24.1026125 C124.341138,24.9650371 123.947841,24.9841385 122.131817,24.9841385 C122.113724,24.7969455 121.982307,24.515201 121.870889,24.3089068 C123.554544,24.3461544 123.554544,24.327053 123.554544,24.1026125 L123.554544,20.2355503 L120.897645,20.2355503 L120.897645,22.2813017 L122.131817,22.1313563 C121.982307,21.7187678 121.814703,21.3243255 121.646147,20.9671309 L122.188955,20.8171855 C122.637485,21.6433176 122.993643,22.7320928 123.105061,23.4455271 L122.507021,23.6136187 C122.468929,23.3509756 122.412744,23.0692311 122.319419,22.7502391 C120.95383,22.9756347 119.661568,23.1637827 118.801647,23.2946267 C118.782601,23.4082796 118.70737,23.4827747 118.594999,23.5200223 L118.239794,22.6002937 L120.149142,22.3748981 L120.149142,20.2355503 L117.659847,20.2355503 L117.659847,25.4158283 L116.873252,25.4158283 L116.873252,19.4848684 L120.149142,19.4848684 L120.149142,18.320643 L117.472245,18.320643 L117.472245,13.647505 L123.742145,13.647505 L123.742145,18.320643 L120.934784,18.320643 L120.934784,19.4848684 L124.341138,19.4848684 L124.341138,19.4848684 Z M118.220748,15.6369075 L120.14819,15.6369075 L120.14819,14.3609393 L118.220748,14.3609393 L118.220748,15.6369075 Z M118.220748,17.62631 L120.14819,17.62631 L120.14819,16.3121392 L118.220748,16.3121392 L118.220748,17.62631 Z M120.934784,15.6369075 L122.993643,15.6369075 L122.993643,14.3609393 L120.934784,14.3609393 L120.934784,15.6369075 Z M120.934784,17.62631 L122.993643,17.62631 L122.993643,16.3121392 L120.934784,16.3121392 L120.934784,17.62631 Z M130.853873,12.6714276 L131.303356,12.6895738 L131.303356,13.0085659 C131.1348,21.4933722 130.98529,24.1026125 130.423437,24.8341931 C130.030139,25.4158283 129.488284,25.4349296 128.70169,25.4349296 C128.234114,25.4349296 127.653215,25.4158283 127.092314,25.3594794 C127.073268,25.1159376 126.998037,24.7405966 126.848527,24.515201 C127.840817,24.5906513 128.739782,24.5906513 129.132127,24.5906513 C129.375914,24.5906513 129.525424,24.5343024 129.674934,24.327053 C130.086325,23.7645192 130.273927,21.1371326 130.423437,13.5348073 L127.934141,13.5348073 C127.784631,18.6214888 127.204685,22.807543 124.864899,25.4912785 C124.715389,25.3031305 124.378278,25.0595887 124.116397,24.9468909 C126.361905,22.5066973 126.923758,18.4896897 127.073268,13.5348073 L124.565879,13.5348073 L124.565879,12.6714276 L127.092314,12.6714276 C127.129453,11.2073114 127.129453,9.68684635 127.129453,8.09093106 L128.401718,8.16638128 C128.383624,8.33542796 128.252207,8.40992311 127.990327,8.44717068 C127.990327,9.91224192 127.990327,11.3200092 127.953187,12.6714276 L130.853873,12.6714276 L130.853873,12.6714276 Z" id="Fill-25"></path>
                    <path d="M146.787648,15.2806679 L140.760583,15.2806679 C140.554887,16.0685974 140.143496,16.8947294 139.375948,17.5518148 C139.225485,17.3827682 138.907419,17.1382713 138.701724,17.0446748 C139.880663,16.0685974 140.124451,14.8107754 140.124451,13.834698 L140.124451,12.4651333 L146.787648,12.4651333 L146.787648,15.2806679 L146.787648,15.2806679 Z M155.508752,19.1286288 L149.407408,19.1286288 C151.129154,20.2546516 153.88033,21.1743802 156.275348,21.5869687 C156.070605,21.7560154 155.844912,22.0750074 155.714447,22.300403 C154.704064,22.0941087 153.599404,21.7751167 152.550928,21.3997758 L152.550928,25.3413331 L151.652916,25.3413331 L151.652916,24.8341931 L143.493665,24.8341931 L143.493665,25.4158283 L142.631839,25.4158283 L142.631839,21.3806744 C141.565271,21.793263 140.498702,22.1313563 139.525458,22.3748981 C139.394041,22.1504576 139.170252,21.8687132 138.963605,21.6805652 C141.15388,21.2116278 143.829825,20.2546516 145.589663,19.1286288 L139.674968,19.1286288 L139.674968,18.4151945 L147.086668,18.4151945 L147.086668,17.3264193 C145.252551,17.4763646 143.306063,17.6072087 141.490992,17.6635576 C141.4529,17.495466 141.359575,17.1946202 141.26625,17.0255735 C144.952579,16.8565268 149.388362,16.4821409 151.709101,15.9931471 L152.550928,16.6320863 C152.513789,16.6693339 152.457604,16.6874801 152.364279,16.6874801 C152.327139,16.6874801 152.270954,16.6874801 152.214769,16.6693339 C151.092015,16.8756281 149.594057,17.0819224 147.965635,17.2328228 L147.965635,18.4151945 L155.508752,18.4151945 L155.508752,19.1286288 L155.508752,19.1286288 Z M143.006091,10.8883194 L143.006091,9.83679171 L139.01979,9.83679171 L139.01979,9.12335741 L143.006091,9.12335741 L143.006091,8.07278481 L144.185982,8.14727996 C144.166936,8.25997775 144.073612,8.35357421 143.866964,8.37267553 L143.866964,9.12335741 L147.61043,9.12335741 L147.61043,9.83679171 L143.866964,9.83679171 L143.866964,10.8883194 L146.861927,10.8883194 L146.861927,11.5826524 L139.86257,11.5826524 L139.86257,10.8883194 L143.006091,10.8883194 L143.006091,10.8883194 Z M143.044182,13.140365 L140.929139,13.140365 L140.929139,13.8537993 C140.929139,14.0791949 140.910093,14.3227367 140.891999,14.5853799 L143.044182,14.5853799 L143.044182,13.140365 L143.044182,13.140365 Z M143.493665,22.5630461 L151.652916,22.5630461 L151.652916,21.6242163 L143.493665,21.6242163 L143.493665,22.5630461 Z M143.493665,24.1398601 L151.652916,24.1398601 L151.652916,23.2010302 L143.493665,23.2010302 L143.493665,24.1398601 Z M146.861927,19.1286288 C146.0201,19.7857142 144.896393,20.404597 143.680314,20.9489846 L151.429127,20.9489846 C150.19305,20.4227432 149.070296,19.8038605 148.246562,19.1286288 L147.965635,19.1286288 L147.965635,20.6863415 L147.086668,20.6863415 L147.086668,19.1286288 L146.861927,19.1286288 L146.861927,19.1286288 Z M143.811731,14.5853799 L145.963914,14.5853799 L145.963914,13.140365 L143.811731,13.140365 L143.811731,14.5853799 Z M152.664251,9.31150541 L149.762613,9.31150541 C149.762613,10.1557838 149.351222,11.1882101 147.90945,11.9207457 C147.778986,11.7698453 147.479965,11.4881008 147.292364,11.3945044 C148.639859,10.7374189 148.996017,9.96859082 148.996017,9.29240409 L148.996017,8.57896979 L153.468939,8.57896979 L153.468939,10.4757309 C153.468939,10.7756216 153.525125,10.8319705 153.88033,10.8319705 L155.078315,10.8319705 C155.415427,10.8319705 155.489706,10.7001714 155.508752,9.59324988 C155.695402,9.72409392 155.995374,9.81769039 156.220115,9.87499435 C156.144884,11.1700638 155.920143,11.5072021 155.20878,11.5072021 L153.824145,11.5072021 C152.926132,11.5072021 152.664251,11.3381555 152.664251,10.4757309 L152.664251,9.31150541 L152.664251,9.31150541 Z M154.124117,12.0324884 L154.647879,12.2960867 C154.628833,12.3514805 154.572647,12.4078294 154.535508,12.446032 C154.02984,13.4030082 153.149921,14.1355438 152.083352,14.717179 C153.225152,15.3179155 154.591693,15.7496053 156.032513,15.9750009 C155.844912,16.1812951 155.602077,16.4821409 155.489706,16.7256828 C153.936515,16.4057357 152.476649,15.8432018 151.259618,15.0925199 C150.249235,15.5242097 149.126481,15.8250555 148.003727,16.0313498 C147.90945,15.8250555 147.741846,15.4869622 147.554244,15.3179155 C148.546534,15.1679701 149.594057,14.9425745 150.530162,14.5853799 C149.89403,14.1164425 149.370268,13.5720548 148.976971,12.9713183 L149.426453,12.8022716 L148.303699,12.8022716 L148.303699,12.0706911 L153.954609,12.0706911 L154.124117,12.0324884 L154.124117,12.0324884 Z M149.762613,12.8022716 C150.136864,13.3466593 150.679672,13.834698 151.33485,14.2663878 C152.158583,13.8729006 152.869947,13.4030082 153.356569,12.8022716 L149.762613,12.8022716 L149.762613,12.8022716 Z" id="Fill-26"></path>
                </g>
            </g>
        </g>
    </g>
</svg>