<?xml version="1.0" encoding="utf-8"?>
<!-- Generator: Adobe Illustrator 16.0.0, SVG Export Plug-In . SVG Version: 6.00 Build 0)  -->
<!DOCTYPE svg PUBLIC "-//W3C//DTD SVG 1.1//EN" "http://www.w3.org/Graphics/SVG/1.1/DTD/svg11.dtd">
<svg version="1.1" id="Layer_1" xmlns:sketch="http://www.bohemiancoding.com/sketch/ns"
	 xmlns="http://www.w3.org/2000/svg" xmlns:xlink="http://www.w3.org/1999/xlink" x="0px" y="0px" width="350px" height="85.019px"
	 viewBox="-72.185 -17.509 350 85.019" enable-background="new -72.185 -17.509 350 85.019" xml:space="preserve">
<title>logo</title>
<desc>Created with Sketch.</desc>
<g id="_x2B_Page1-INDEX" sketch:type="MSPage">
	<g id="INDEX-Menu-Open" transform="translate(-31.000000, -27.000000)" sketch:type="MSArtboardGroup">
		<g id="header" transform="translate(24.000000, 10.000000)" sketch:type="MSLayerGroup">
			<g id="logo" transform="translate(7.000000, 17.000000)" sketch:type="MSShapeGroup">
				<path id="Fill-1" fill="#7F56C5" d="M0.585,0.712c0,0-0.003,0.007-0.006,0.007C0.559,0.762,0.543,0.79,0.543,0.79L0.585,0.712"
					/>
				<path id="Fill-2" fill="#7F56C5" d="M36.481,27.069c3.329,0.175,2.626-2.104,0.529-3.154
					c-6.347-3.184-12.604-5.616-14.677-6.351c-2.778-0.981-3.605,0.799-3.605,0.799s-8.087,10.531-8.9,11.99
					c-1.692,3.035,1.627,2.509,1.627,2.509l8.055-4.387c1.688,1.951,4.852,9.081,0.442,14.459
					c-1.625,1.989-5.255,6.433-14.125,8.871c-9.321,2.563-16.02,0.832-19.389-1.22c-1.509-0.912,1.63-8.423-7.355-7.194
					c-7.695,1.049-6.142-2.637-6.454-3.542c-0.157-0.439,0.01-1.439-0.726-1.771c-0.77-0.352-1.238-0.921-1.238-0.921
					c-0.92-1.639,1.693-2.313,1.693-2.313c-4.445,0.646-2.22-1.741-1.902-2.532c0.199-0.504,0.552-0.592-1.615-1.187
					c-2.575-0.718-2.246-1.506-0.66-3.219c1.625-1.76,1.936-3.691,2.013-3.793c0.308-0.571-1.492-11.991,9.417-15.584
					C-15.253,6.838-9,6.72-1.126,7.724C10.475,9.209,9.93,2.734,9.93,2.734c-14.017-2.535-20.077-2.66-26.455-2.155
					c-12.612,1.021-21.34,5.12-26.367,11.513c-5.021,6.392-6.015,16.894-0.953,25.387c0.138,0.222,5.084,8.53,10.362,12.919
					c5.938,4.957,12.245,7.135,14.449,7.955c13.169,4.633,28.356,4.086,39.984-1.924c20.084-11.895,8.456-27.075,7.129-30.062
					C28.08,26.367,31.737,26.818,36.481,27.069"/>
				<path id="Fill-3" fill="#7F56C5" d="M16.208-4.238L4.887-3.561L16.68-2.174l5.354,16.676L19.976-2.072l11.316-0.672L19.5-4.141
					l-3.316-7.295L16.208-4.238"/>
				<path id="Fill-4" fill="#7F56C5" d="M60.157,50.176h-2.15v-0.367h6.519v0.367h-1.846v2.728
					c-0.794,0.619-2.756,2.452-6.285,2.452c-4.181,0-7.382-3.025-7.382-8.435c0-4.698,3.434-8.435,7.382-8.435
					c2.57,0,3.715,1.559,4.486,1.559c0.701,0,0.817-0.571,0.817-1.146h0.374v4.904h-0.374c-0.094-2.451-2.383-4.95-5.304-4.95
					c-4.158,0-4.718,5.065-4.718,8.068c0,2.957,0.561,8.068,4.718,8.068c2.243,0,3.762-0.711,3.762-2.796V50.176"/>
				<path id="Fill-5" fill="#7F56C5" d="M73.944,49.764h-4.999l-0.958,2.888c-0.164,0.457-0.351,1.009-0.351,1.398
					c0,0.319,0.281,0.571,1.028,0.571h1.215v0.368h-4.813v-0.368h0.748c0.724,0,1.028-0.068,1.471-1.351l5.024-14.784h0.257
					l5.676,16.135h1.939v0.368h-6.846v-0.368h2.291L73.944,49.764L73.944,49.764z M71.421,42.451h-0.048l-2.287,6.945h4.741
					L71.421,42.451L71.421,42.451z"/>
				<path id="Fill-6" fill="#7F56C5" d="M83.338,39.219h-2.335v-0.366h7.171c2.688,0,5.607,0.597,5.607,4.056
					c0,2.799-3.293,3.531-4.999,3.738v0.045c2.687,0.229,4.111,0.802,4.462,3.828l0.328,2.795c0.163,1.355,0.817,1.445,1.214,1.445
					c0.421,0,0.724-0.139,0.958-0.229l0.14,0.297c-0.467,0.161-1.052,0.297-1.916,0.297c-2.849,0-3.014-1.489-3.34-4.125
					l-0.164-1.375c-0.163-1.443-0.583-2.751-3.224-2.751h-1.518v7.747h2.383v0.368h-7.102v-0.368h2.335V39.219L83.338,39.219z
					 M85.722,46.509h1.167c2.758,0,4.368-0.941,4.368-3.601c0-1.831-0.63-3.689-3.948-3.689h-1.588V46.509L85.722,46.509z"/>
				<path id="Fill-7" fill="#7F56C5" d="M98.458,39.219h-2.221v-0.366h7.312c6.215,0,7.967,5.02,7.967,8.068
					c0,4.996-3.154,8.068-7.943,8.068h-7.336v-0.368h2.221V39.219L98.458,39.219z M100.84,54.621h2.008
					c2.104,0,6.004-0.777,6.004-7.7c0-3.92-1.146-7.702-6.868-7.702h-1.144V54.621L100.84,54.621z"/>
				<path id="Fill-8" fill="#7F56C5" d="M115.327,39.219h-2.055v-0.366h12.451l0.281,3.896h-0.375c0-2.636-1.774-3.53-4.251-3.53
					h-3.669v7.383h1.754c2.428,0,2.662-1.445,2.662-2.936h0.375v6.098h-0.375c0-1.742-0.234-2.797-2.687-2.797h-1.729v7.654h3.201
					c3.784,0,5.607-0.435,5.607-4.33h0.373v4.698h-13.619v-0.368h2.055V39.219"/>
				<path id="Fill-9" fill="#7F56C5" d="M131.357,39.953h-0.049v13.361c0,1.102,0.376,1.307,1.449,1.307h0.936v0.368h-4.999v-0.368
					h0.794c1.075,0,1.448-0.205,1.448-1.307V39.219h-2.242v-0.366h4.906l8.83,11.964h0.048V40.457c0-0.939-0.188-1.238-1.215-1.238
					h-1.1v-0.366h4.929v0.366h-1.027c-1.026,0-1.215,0.299-1.215,1.238v14.668h-0.304L131.357,39.953"/>
				<path id="Fill-10" fill="#7F56C5" d="M160.261,38.486c3.947,0,7.383,3.736,7.383,8.435c0,4.699-3.436,8.435-7.383,8.435
					c-3.948,0-7.382-3.735-7.382-8.435C152.879,42.223,156.312,38.486,160.261,38.486L160.261,38.486z M160.261,54.989
					c4.159,0,4.719-5.067,4.719-8.068c0-3.003-0.56-8.068-4.719-8.068c-4.158,0-4.718,5.065-4.718,8.068
					C155.543,49.922,156.103,54.989,160.261,54.989L160.261,54.989z"/>
				<path id="Fill-11" fill="#7F56C5" d="M171.407,39.219h-2.124v-0.366h12.497l0.328,3.896h-0.397
					c-0.094-2.681-1.635-3.53-4.206-3.53h-3.714v7.383h1.752c2.43,0,2.663-1.445,2.663-2.936h0.373v6.098h-0.373
					c0-1.742-0.233-2.797-2.688-2.797h-1.728v7.654h2.195v0.368h-6.703v-0.368h2.124V39.219"/>
				<path id="Fill-12" fill="#7F56C5" d="M191.923,39.219h-2.055v-0.366h6.635v0.366h-2.197v7.29h8.504v-7.29h-2.195v-0.366h6.634
					v0.366h-2.056v15.402h2.056v0.368h-6.634v-0.368h2.195v-7.747h-8.504v7.747h2.197v0.368h-6.635v-0.368h2.055V39.219"/>
				<path id="Fill-13" fill="#7F56C5" d="M216.085,38.486c3.947,0,7.381,3.736,7.381,8.435c0,4.699-3.434,8.435-7.381,8.435
					c-3.95,0-7.384-3.735-7.384-8.435C208.701,42.223,212.135,38.486,216.085,38.486L216.085,38.486z M216.085,54.989
					c4.157,0,4.719-5.067,4.719-8.068c0-3.003-0.562-8.068-4.719-8.068c-4.158,0-4.72,5.065-4.72,8.068
					C211.365,49.922,211.927,54.989,216.085,54.989L216.085,54.989z"/>
				<path id="Fill-14" fill="#7F56C5" d="M227.231,39.219h-2.312v-0.366h6.656c3.481,0,6.169,1.17,6.169,4.471
					c0,3.231-3.107,4.468-5.935,4.468c-0.794,0-1.729-0.16-2.194-0.39v7.22h2.382v0.368h-7.078v-0.368h2.312V39.219L227.231,39.219z
					 M229.615,46.944c0.349,0.229,1.026,0.48,1.797,0.48c1.543,0,3.808-0.803,3.808-3.896c0-3.003-1.4-4.31-4.181-4.31h-1.424
					V46.944L229.615,46.944z"/>
				<path id="Fill-15" fill="#7F56C5" d="M241.252,39.219h-2.056v-0.366h12.452l0.28,3.896h-0.375c0-2.636-1.774-3.53-4.252-3.53
					h-3.668v7.383h1.752c2.43,0,2.664-1.445,2.664-2.936h0.375v6.098h-0.375c0-1.742-0.234-2.797-2.687-2.797h-1.729v7.654h3.202
					c3.783,0,5.607-0.435,5.607-4.33h0.372v4.698h-13.619v-0.368h2.056V39.219"/>
				<path id="Fill-23" fill="#7F56C5" d="M59.009,15.117c-0.164-0.467-0.41-0.99-0.71-1.566l-3.396,0.137v11.948h-1.233V13.743
					c-1.67,0.083-3.205,0.137-4.409,0.165c-0.028,0.22-0.192,0.302-0.356,0.357l-0.438-1.62l1.998-0.028
					c0.686-0.769,1.371-1.676,2.083-2.664c-0.85-1.209-2.382-2.857-3.752-4.066l0.712-0.823c0.3,0.248,0.602,0.521,0.902,0.797
					c1.013-1.621,2.247-3.983,2.931-5.631l1.534,0.687c-0.11,0.164-0.301,0.218-0.521,0.192c-0.739,1.62-2.054,3.928-3.121,5.521
					c0.794,0.796,1.534,1.619,2.054,2.307c1.314-1.896,2.574-3.956,3.45-5.603l1.534,0.74c-0.082,0.11-0.274,0.22-0.548,0.22
					c-1.452,2.418-3.835,5.878-5.888,8.296c1.808,0,3.834-0.055,5.888-0.083c-0.603-1.016-1.314-2.062-1.999-2.938l1.067-0.495
					c1.342,1.704,2.768,3.983,3.342,5.465L59.009,15.117L59.009,15.117z M52.08,16.352c-0.054,0.193-0.218,0.275-0.52,0.275
					c-0.411,2.362-1.097,4.998-1.943,6.592c-0.275-0.166-0.74-0.385-1.043-0.522c0.85-1.565,1.48-4.229,1.89-6.757L52.08,16.352
					L52.08,16.352z M57.585,15.857c0.849,1.731,1.642,3.957,1.944,5.439l-1.178,0.384c-0.246-1.483-1.013-3.763-1.861-5.494
					L57.585,15.857L57.585,15.857z M71.334,13.468c-0.083,3.79-0.192,7.417-0.329,10.08h3.175v1.264H57.969v-1.264h3.888
					c0.385-2.691,0.769-6.316,1.124-10.08h-2.958v-1.264h3.094c0.274-3.159,0.549-6.343,0.713-9.063h-3.917V1.85h11.558
					c0,3.076-0.028,6.729-0.11,10.354h2.684v1.264H71.334L71.334,13.468z M69.69,23.548c0.137-2.691,0.274-6.316,0.356-10.08h-5.725
					c-0.355,3.79-0.712,7.417-1.04,10.08H69.69L69.69,23.548z M70.075,12.204c0.081-3.13,0.108-6.289,0.108-9.063h-5.011
					c-0.192,2.746-0.467,5.933-0.74,9.063H70.075L70.075,12.204z"/>
				<path id="Fill-24" fill="#7F56C5" d="M87.884,16.378c-0.054,0.167-0.219,0.276-0.52,0.249c-0.493,2.362-1.314,4.998-2.273,6.62
					c-0.246-0.166-0.739-0.413-1.067-0.55c0.958-1.565,1.726-4.174,2.217-6.729L87.884,16.378L87.884,16.378z M90.842,0.917
					c-0.11,0.136-0.301,0.247-0.547,0.218c-0.849,1.593-2.301,3.901-3.45,5.466c0.876,0.797,1.697,1.647,2.245,2.336
					c1.424-1.896,2.793-3.956,3.753-5.603l1.506,0.713c-0.055,0.165-0.247,0.221-0.521,0.221c-1.617,2.472-4.108,5.905-6.299,8.323
					c1.946-0.028,4.108-0.055,6.299-0.111c-0.628-0.988-1.342-1.977-2.027-2.829c0.713-0.384,0.877-0.466,1.013-0.522
					c1.452,1.675,2.958,3.982,3.561,5.465c-0.739,0.467-0.905,0.549-1.068,0.632c-0.22-0.494-0.493-1.071-0.85-1.703l-3.561,0.165
					v11.948h-1.259V13.743c-1.835,0.083-3.479,0.137-4.792,0.165c-0.028,0.22-0.191,0.331-0.355,0.357l-0.439-1.62l2.026-0.028
					c0.713-0.769,1.507-1.703,2.275-2.692c-0.905-1.208-2.521-2.801-3.945-3.927l0.685-0.825c0.302,0.219,0.603,0.467,0.931,0.743
					c1.15-1.622,2.493-3.983,3.26-5.686L90.842,0.917L90.842,0.917z M94.621,21.736c-0.327-1.483-1.204-3.763-2.107-5.494
					l1.095-0.385c0.931,1.731,1.835,3.983,2.19,5.467L94.621,21.736L94.621,21.736z M108.316,5.531l0.711,0.109
					c0,0.11-0.026,0.275-0.026,0.413c-0.494,13.074-0.96,17.359-2.082,18.677c-0.631,0.797-1.262,0.935-2.931,0.935
					c-0.958,0-2.192-0.055-3.423-0.138c-0.028-0.412-0.165-0.934-0.438-1.291c1.945,0.137,3.725,0.166,4.382,0.166
					c0.574,0,0.932-0.057,1.231-0.386c0.959-1.016,1.481-5.356,1.945-17.167h-9.201c-0.768,1.787-1.645,3.406-2.576,4.67
					c-0.247-0.22-0.766-0.549-1.095-0.715c1.861-2.444,3.504-6.536,4.518-10.574l1.754,0.466c-0.082,0.193-0.248,0.274-0.576,0.248
					c-0.411,1.537-0.93,3.13-1.507,4.613h9.014L108.316,5.531L108.316,5.531z M98.977,11.491c1.642,2.004,3.396,4.751,4.081,6.537
					l-1.179,0.632c-0.684-1.758-2.382-4.559-4.026-6.619L98.977,11.491L98.977,11.491z"/>
				<path id="Fill-25" fill="#7F56C5" d="M134.835,2.592h-12.243v8.625c0,3.983-0.217,9.668-1.835,13.569
					c-0.218-0.222-0.711-0.55-1.013-0.688c1.534-3.762,1.67-9.036,1.67-12.881V1.411h13.421V2.592L134.835,2.592z M126.017,7.893
					V6.107h-2.74V5.064h2.74V3.141l1.56,0.109c-0.027,0.165-0.136,0.275-0.438,0.303v1.511h3.287V3.141l1.56,0.109
					c-0.027,0.165-0.137,0.275-0.437,0.303v1.511h2.876v1.043h-2.876v1.786h-1.123V6.107h-3.287v1.786H126.017L126.017,7.893z
					 M134.315,16.929v6.758c0,1.261-0.576,1.29-3.233,1.29c-0.028-0.274-0.219-0.687-0.382-0.988
					c2.463,0.054,2.463,0.026,2.463-0.302v-5.659h-3.888v2.994l1.807-0.219c-0.219-0.604-0.465-1.181-0.71-1.703l0.795-0.22
					c0.654,1.209,1.176,2.802,1.339,3.845l-0.875,0.247c-0.057-0.385-0.139-0.797-0.274-1.264c-1.999,0.33-3.889,0.605-5.148,0.797
					c-0.026,0.167-0.138,0.275-0.301,0.33l-0.521-1.346l2.793-0.33v-3.131h-3.642v7.582h-1.151v-8.68h4.793v-1.703h-3.915V8.388
					h9.173v6.838h-4.107v1.703H134.315L134.315,16.929z M125.358,11.298h2.821V9.432h-2.821V11.298z M125.358,14.21h2.821v-1.923
					h-2.821V14.21z M129.33,11.298h3.013V9.432h-3.013V11.298z M129.33,14.21h3.013v-1.923h-3.013V14.21z M143.844,6.959
					l0.657,0.026v0.468c-0.244,12.415-0.464,16.234-1.285,17.304c-0.576,0.853-1.369,0.88-2.521,0.88
					c-0.684,0-1.534-0.027-2.355-0.11c-0.027-0.356-0.138-0.905-0.356-1.236c1.452,0.111,2.77,0.111,3.344,0.111
					c0.354,0,0.574-0.083,0.793-0.386c0.602-0.823,0.875-4.668,1.096-15.793h-3.645c-0.217,7.444-1.065,13.57-4.489,17.497
					c-0.221-0.275-0.712-0.631-1.097-0.797c3.285-3.57,4.108-9.449,4.327-16.7h-3.668V6.959h3.695
					c0.054-2.142,0.054-4.367,0.054-6.703l1.864,0.111c-0.028,0.247-0.22,0.356-0.604,0.411c0,2.144,0,4.204-0.054,6.181H143.844
					L143.844,6.959z"/>
				<path id="Fill-26" fill="#7F56C5" d="M167.161,10.777h-8.818c-0.303,1.153-0.904,2.361-2.027,3.324
					c-0.22-0.248-0.686-0.605-0.987-0.742c1.727-1.429,2.084-3.27,2.084-4.698V6.658h9.749V10.777L167.161,10.777z M179.924,16.408
					h-8.929c2.519,1.649,6.546,2.994,10.05,3.598c-0.3,0.248-0.63,0.715-0.82,1.044c-1.479-0.302-3.095-0.769-4.63-1.318v5.767
					h-1.314v-0.742h-11.938v0.853h-1.262v-5.905c-1.562,0.604-3.122,1.098-4.546,1.455c-0.191-0.329-0.521-0.741-0.822-1.016
					c3.206-0.687,7.121-2.086,9.697-3.735h-8.656v-1.043h10.846v-1.594c-2.685,0.22-5.531,0.412-8.188,0.494
					c-0.057-0.246-0.193-0.687-0.33-0.934c5.396-0.248,11.886-0.795,15.282-1.511l1.231,0.935c-0.054,0.055-0.137,0.082-0.273,0.082
					c-0.054,0-0.136,0-0.218-0.026c-1.644,0.302-3.835,0.604-6.218,0.824v1.73h11.038V16.408L179.924,16.408z M161.627,4.35V2.811
					h-5.833V1.768h5.833V0.23l1.727,0.109c-0.027,0.165-0.163,0.302-0.466,0.33v1.099h5.478v1.043h-5.478V4.35h4.382v1.016h-10.241
					V4.35H161.627L161.627,4.35z M161.684,7.646h-3.094V8.69c0,0.329-0.029,0.686-0.056,1.07h3.149V7.646L161.684,7.646z
					 M162.342,21.434h11.938V20.06h-11.938V21.434z M162.342,23.741h11.938v-1.373h-11.938V23.741z M167.27,16.408
					c-1.232,0.962-2.876,1.868-4.655,2.665h11.34c-1.81-0.771-3.452-1.676-4.658-2.665h-0.41v2.281h-1.287v-2.281H167.27
					L167.27,16.408z M162.806,9.76h3.15V7.646h-3.15V9.76z M175.76,2.042h-4.245c0,1.236-0.602,2.747-2.711,3.818
					c-0.191-0.221-0.628-0.633-0.902-0.77c1.97-0.962,2.491-2.086,2.491-3.076V0.971h6.545v2.775c0,0.438,0.083,0.521,0.604,0.521
					h1.752c0.495,0,0.604-0.193,0.631-1.812c0.272,0.191,0.712,0.329,1.042,0.412c-0.111,1.895-0.441,2.389-1.481,2.389h-2.026
					c-1.314,0-1.698-0.248-1.698-1.51V2.042L175.76,2.042z M177.897,6.024l0.767,0.386c-0.028,0.081-0.111,0.163-0.165,0.22
					c-0.741,1.399-2.026,2.472-3.588,3.323c1.669,0.879,3.671,1.511,5.78,1.84c-0.276,0.302-0.632,0.742-0.795,1.098
					c-2.274-0.468-4.411-1.291-6.19-2.389c-1.479,0.631-3.121,1.071-4.766,1.373c-0.137-0.301-0.383-0.796-0.657-1.043
					c1.452-0.22,2.985-0.55,4.354-1.072c-0.93-0.687-1.697-1.483-2.273-2.362l0.658-0.248h-1.643V6.08h8.271L177.897,6.024
					L177.897,6.024z M171.515,7.15c0.548,0.797,1.343,1.511,2.301,2.143c1.205-0.576,2.247-1.264,2.958-2.143H171.515L171.515,7.15z
					"/>
			</g>
		</g>
	</g>
</g>
</svg>
